<?xml version="1.0" encoding="UTF-8" standalone="no"?>
<!DOCTYPE svg PUBLIC "-//W3C//DTD SVG 1.1//EN"
 "http://www.w3.org/Graphics/SVG/1.1/DTD/svg11.dtd">
<!-- Generated by graphviz version 12.2.1 (20241206.2353)
 -->
<!-- Title: AR6_WGI Pages: 1 -->
<svg width="1722pt" height="332pt"
 viewBox="36.00 36.00 1685.62 296.00" xmlns="http://www.w3.org/2000/svg" xmlns:xlink="http://www.w3.org/1999/xlink">
<g id="graph0" class="graph" transform="scale(1 1) rotate(0) translate(40 292)">
<title>AR6_WGI</title>
<polygon fill="white" stroke="none" points="-4,4 -4,-256 1645.62,-256 1645.62,4 -4,4"/>
<!-- AR6 -->
<g id="node1" class="node">
<title>AR6</title>
<g id="a_node1"><a xlink:href="https://www.ipcc.ch/report/ar6/wg1/" xlink:title="AR6 WGI">
<polygon fill="lightblue" stroke="lightblue" points="702.75,-252 630.5,-252 630.5,-216 702.75,-216 702.75,-252"/>
<text text-anchor="middle" x="666.62" y="-228.95" font-family="Times New Roman,serif" font-size="14.00">AR6 WGI</text>
</a>
</g>
</g>
<!-- SPM -->
<g id="node2" class="node">
<title>SPM</title>
<g id="a_node2"><a xlink:href="https://www.ipcc.ch/report/ar6/wg1/chapter/summary-for-policymakers/" xlink:title="Summary for Policymakers">
<polygon fill="lightgrey" stroke="lightgrey" points="357.38,-144 189.88,-144 189.88,-108 357.38,-108 357.38,-144"/>
<text text-anchor="middle" x="273.62" y="-120.95" font-family="Times New Roman,serif" font-size="14.00">Summary for Policymakers</text>
</a>
</g>
</g>
<!-- AR6&#45;&gt;SPM -->
<g id="edge13" class="edge">
<title>AR6&#45;&gt;SPM</title>
<path fill="none" stroke="black" d="M630.01,-223.12C566.27,-205.93 433.71,-170.18 349.45,-147.45"/>
<polygon fill="black" stroke="black" points="350.44,-144.09 339.87,-144.87 348.61,-150.85 350.44,-144.09"/>
</g>
<!-- TS -->
<g id="node3" class="node">
<title>TS</title>
<g id="a_node3"><a xlink:href="https://www.ipcc.ch/report/ar6/wg1/chapter/technical-summary/" xlink:title="Technical Summary">
<polygon fill="lightgrey" stroke="lightgrey" points="555.75,-144 429.5,-144 429.5,-108 555.75,-108 555.75,-144"/>
<text text-anchor="middle" x="492.62" y="-120.95" font-family="Times New Roman,serif" font-size="14.00">Technical Summary</text>
</a>
</g>
</g>
<!-- AR6&#45;&gt;TS -->
<g id="edge14" class="edge">
<title>AR6&#45;&gt;TS</title>
<path fill="none" stroke="black" d="M638.28,-215.73C609.05,-197.92 563.27,-170.04 530.85,-150.28"/>
<polygon fill="black" stroke="black" points="532.9,-147.44 522.54,-145.22 529.26,-153.41 532.9,-147.44"/>
</g>
<!-- FR -->
<g id="node4" class="node">
<title>FR</title>
<g id="a_node4"><a xlink:href="https://www.ipcc.ch/report/ar6/wg1/" xlink:title="Full Report">
<polygon fill="lightgrey" stroke="lightgrey" points="705.75,-144 627.5,-144 627.5,-108 705.75,-108 705.75,-144"/>
<text text-anchor="middle" x="666.62" y="-120.95" font-family="Times New Roman,serif" font-size="14.00">Full Report</text>
</a>
</g>
</g>
<!-- AR6&#45;&gt;FR -->
<g id="edge15" class="edge">
<title>AR6&#45;&gt;FR</title>
<path fill="none" stroke="black" d="M666.62,-215.97C666.62,-199.76 666.62,-175.06 666.62,-155.79"/>
<polygon fill="black" stroke="black" points="670.13,-155.85 666.63,-145.85 663.13,-155.85 670.13,-155.85"/>
</g>
<!-- CP -->
<g id="node5" class="node">
<title>CP</title>
<g id="a_node5"><a xlink:href="https://www.ipcc.ch/report/ar6/wg1/" xlink:title="Chapters">
<polygon fill="lightyellow" stroke="lightyellow" points="841.62,-144 777.62,-144 777.62,-108 841.62,-108 841.62,-144"/>
<text text-anchor="middle" x="809.62" y="-120.95" font-family="Times New Roman,serif" font-size="14.00">Chapters</text>
</a>
</g>
</g>
<!-- AR6&#45;&gt;CP -->
<g id="edge16" class="edge">
<title>AR6&#45;&gt;CP</title>
<path fill="none" stroke="black" d="M689.92,-215.73C713.71,-198.1 750.82,-170.59 777.41,-150.88"/>
<polygon fill="black" stroke="black" points="779.18,-153.93 785.13,-145.16 775.01,-148.3 779.18,-153.93"/>
</g>
<!-- FMI -->
<g id="node6" class="node">
<title>FMI</title>
<g id="a_node6"><a xlink:href="https://www.ipcc.ch/report/ar6/wg1/" xlink:title="Front Matter, Annexes, and Index">
<polygon fill="lightgrey" stroke="lightgrey" points="1113.88,-144 913.38,-144 913.38,-108 1113.88,-108 1113.88,-144"/>
<text text-anchor="middle" x="1013.62" y="-120.95" font-family="Times New Roman,serif" font-size="14.00">Front Matter, Annexes, and Index</text>
</a>
</g>
</g>
<!-- AR6&#45;&gt;FMI -->
<g id="edge17" class="edge">
<title>AR6&#45;&gt;FMI</title>
<path fill="none" stroke="black" d="M703.1,-221.86C760.54,-204.31 872.96,-169.97 945.61,-147.78"/>
<polygon fill="black" stroke="black" points="946.49,-151.17 955.03,-144.9 944.44,-144.47 946.49,-151.17"/>
</g>
<!-- CP1 -->
<g id="node7" class="node">
<title>CP1</title>
<g id="a_node7"><a xlink:href="https://www.ipcc.ch/report/ar6/wg1/chapter/chapter-1/" xlink:title="Chapter 1">
<polygon fill="lightcoral" stroke="lightcoral" points="69.25,-36 0,-36 0,0 69.25,0 69.25,-36"/>
<text text-anchor="middle" x="34.62" y="-12.95" font-family="Times New Roman,serif" font-size="14.00">Chapter 1</text>
</a>
</g>
</g>
<!-- CP&#45;&gt;CP1 -->
<g id="edge1" class="edge">
<title>CP&#45;&gt;CP1</title>
<path fill="none" stroke="black" d="M777.3,-115.99C766.08,-113.11 753.36,-110.12 741.62,-108 461.25,-57.34 385.17,-85.72 104.62,-36 96.84,-34.62 88.63,-32.89 80.69,-31.06"/>
<polygon fill="black" stroke="black" points="81.71,-27.7 71.17,-28.78 80.08,-34.51 81.71,-27.7"/>
</g>
<!-- CP2 -->
<g id="node8" class="node">
<title>CP2</title>
<g id="a_node8"><a xlink:href="https://www.ipcc.ch/report/ar6/wg1/chapter/chapter-2/" xlink:title="Chapter 2">
<polygon fill="lightcoral" stroke="lightcoral" points="210.25,-36 141,-36 141,0 210.25,0 210.25,-36"/>
<text text-anchor="middle" x="175.62" y="-12.95" font-family="Times New Roman,serif" font-size="14.00">Chapter 2</text>
</a>
</g>
</g>
<!-- CP&#45;&gt;CP2 -->
<g id="edge2" class="edge">
<title>CP&#45;&gt;CP2</title>
<path fill="none" stroke="black" d="M777.26,-116.2C766.03,-113.34 753.33,-110.31 741.62,-108 523.07,-64.93 464.32,-78.33 245.62,-36 237.86,-34.5 229.67,-32.7 221.72,-30.85"/>
<polygon fill="black" stroke="black" points="222.75,-27.49 212.21,-28.56 221.11,-34.3 222.75,-27.49"/>
</g>
<!-- CP3 -->
<g id="node9" class="node">
<title>CP3</title>
<g id="a_node9"><a xlink:href="https://www.ipcc.ch/report/ar6/wg1/chapter/chapter-3/" xlink:title="Chapter 3">
<polygon fill="lightcoral" stroke="lightcoral" points="351.25,-36 282,-36 282,0 351.25,0 351.25,-36"/>
<text text-anchor="middle" x="316.62" y="-12.95" font-family="Times New Roman,serif" font-size="14.00">Chapter 3</text>
</a>
</g>
</g>
<!-- CP&#45;&gt;CP3 -->
<g id="edge3" class="edge">
<title>CP&#45;&gt;CP3</title>
<path fill="none" stroke="black" d="M777.18,-116.57C765.95,-113.74 753.26,-110.63 741.62,-108 584.6,-72.47 543.76,-71 386.62,-36 378.83,-34.26 370.56,-32.33 362.55,-30.42"/>
<polygon fill="black" stroke="black" points="363.47,-27.04 352.93,-28.09 361.83,-33.84 363.47,-27.04"/>
</g>
<!-- CP4 -->
<g id="node10" class="node">
<title>CP4</title>
<g id="a_node10"><a xlink:href="https://www.ipcc.ch/report/ar6/wg1/chapter/chapter-4/" xlink:title="Chapter 4">
<polygon fill="lightcoral" stroke="lightcoral" points="492.25,-36 423,-36 423,0 492.25,0 492.25,-36"/>
<text text-anchor="middle" x="457.62" y="-12.95" font-family="Times New Roman,serif" font-size="14.00">Chapter 4</text>
</a>
</g>
</g>
<!-- CP&#45;&gt;CP4 -->
<g id="edge4" class="edge">
<title>CP&#45;&gt;CP4</title>
<path fill="none" stroke="black" d="M777.14,-115.22C714.3,-96.29 575.91,-54.62 503.63,-32.85"/>
<polygon fill="black" stroke="black" points="504.66,-29.51 494.07,-29.98 502.64,-36.21 504.66,-29.51"/>
</g>
<!-- CP5 -->
<g id="node11" class="node">
<title>CP5</title>
<g id="a_node11"><a xlink:href="https://www.ipcc.ch/report/ar6/wg1/chapter/chapter-5/" xlink:title="Chapter 5">
<polygon fill="lightcoral" stroke="lightcoral" points="633.25,-36 564,-36 564,0 633.25,0 633.25,-36"/>
<text text-anchor="middle" x="598.62" y="-12.95" font-family="Times New Roman,serif" font-size="14.00">Chapter 5</text>
</a>
</g>
</g>
<!-- CP&#45;&gt;CP5 -->
<g id="edge5" class="edge">
<title>CP&#45;&gt;CP5</title>
<path fill="none" stroke="black" d="M777.58,-108.9C741.84,-90.95 683.77,-61.77 643.52,-41.55"/>
<polygon fill="black" stroke="black" points="645.3,-38.53 634.79,-37.17 642.15,-44.78 645.3,-38.53"/>
</g>
<!-- CP6 -->
<g id="node12" class="node">
<title>CP6</title>
<g id="a_node12"><a xlink:href="https://www.ipcc.ch/report/ar6/wg1/chapter/chapter-6/" xlink:title="Chapter 6">
<polygon fill="lightcoral" stroke="lightcoral" points="774.25,-36 705,-36 705,0 774.25,0 774.25,-36"/>
<text text-anchor="middle" x="739.62" y="-12.95" font-family="Times New Roman,serif" font-size="14.00">Chapter 6</text>
</a>
</g>
</g>
<!-- CP&#45;&gt;CP6 -->
<g id="edge6" class="edge">
<title>CP&#45;&gt;CP6</title>
<path fill="none" stroke="black" d="M798.38,-107.97C787.32,-91.22 770.27,-65.41 757.38,-45.89"/>
<polygon fill="black" stroke="black" points="760.34,-44.02 751.91,-37.6 754.5,-47.88 760.34,-44.02"/>
</g>
<!-- CP7 -->
<g id="node13" class="node">
<title>CP7</title>
<g id="a_node13"><a xlink:href="https://www.ipcc.ch/report/ar6/wg1/chapter/chapter-7/" xlink:title="Chapter 7">
<polygon fill="lightcoral" stroke="lightcoral" points="915.25,-36 846,-36 846,0 915.25,0 915.25,-36"/>
<text text-anchor="middle" x="880.62" y="-12.95" font-family="Times New Roman,serif" font-size="14.00">Chapter 7</text>
</a>
</g>
</g>
<!-- CP&#45;&gt;CP7 -->
<g id="edge7" class="edge">
<title>CP&#45;&gt;CP7</title>
<path fill="none" stroke="black" d="M821.03,-107.97C832.25,-91.22 849.54,-65.41 862.61,-45.89"/>
<polygon fill="black" stroke="black" points="865.51,-47.85 868.17,-37.6 859.69,-43.96 865.51,-47.85"/>
</g>
<!-- CP8 -->
<g id="node14" class="node">
<title>CP8</title>
<g id="a_node14"><a xlink:href="https://www.ipcc.ch/report/ar6/wg1/chapter/chapter-8/" xlink:title="Chapter 8">
<polygon fill="lightcoral" stroke="lightcoral" points="1056.25,-36 987,-36 987,0 1056.25,0 1056.25,-36"/>
<text text-anchor="middle" x="1021.62" y="-12.95" font-family="Times New Roman,serif" font-size="14.00">Chapter 8</text>
</a>
</g>
</g>
<!-- CP&#45;&gt;CP8 -->
<g id="edge8" class="edge">
<title>CP&#45;&gt;CP8</title>
<path fill="none" stroke="black" d="M841.82,-108.9C877.73,-90.95 936.08,-61.77 976.52,-41.55"/>
<polygon fill="black" stroke="black" points="977.92,-44.77 985.3,-37.16 974.79,-38.51 977.92,-44.77"/>
</g>
<!-- CP9 -->
<g id="node15" class="node">
<title>CP9</title>
<g id="a_node15"><a xlink:href="https://www.ipcc.ch/report/ar6/wg1/chapter/chapter-9/" xlink:title="Chapter 9">
<polygon fill="lightcoral" stroke="lightcoral" points="1197.25,-36 1128,-36 1128,0 1197.25,0 1197.25,-36"/>
<text text-anchor="middle" x="1162.62" y="-12.95" font-family="Times New Roman,serif" font-size="14.00">Chapter 9</text>
</a>
</g>
</g>
<!-- CP&#45;&gt;CP9 -->
<g id="edge9" class="edge">
<title>CP&#45;&gt;CP9</title>
<path fill="none" stroke="black" d="M841.89,-115.31C904.94,-96.38 1044.68,-54.42 1117.11,-32.67"/>
<polygon fill="black" stroke="black" points="1117.69,-36.15 1126.26,-29.92 1115.68,-29.44 1117.69,-36.15"/>
</g>
<!-- CP10 -->
<g id="node16" class="node">
<title>CP10</title>
<g id="a_node16"><a xlink:href="https://www.ipcc.ch/report/ar6/wg1/chapter/chapter-10/" xlink:title="Chapter 10">
<polygon fill="lightcoral" stroke="lightcoral" points="1345.62,-36 1269.62,-36 1269.62,0 1345.62,0 1345.62,-36"/>
<text text-anchor="middle" x="1307.62" y="-12.95" font-family="Times New Roman,serif" font-size="14.00">Chapter 10</text>
</a>
</g>
</g>
<!-- CP&#45;&gt;CP10 -->
<g id="edge10" class="edge">
<title>CP&#45;&gt;CP10</title>
<path fill="none" stroke="black" d="M842.07,-116.57C853.3,-113.74 865.99,-110.63 877.62,-108 1035.08,-72.42 1075.84,-70.07 1233.62,-36 1241.6,-34.28 1250.04,-32.4 1258.26,-30.53"/>
<polygon fill="black" stroke="black" points="1258.82,-33.99 1267.78,-28.35 1257.26,-27.17 1258.82,-33.99"/>
</g>
<!-- CP11 -->
<g id="node17" class="node">
<title>CP11</title>
<g id="a_node17"><a xlink:href="https://www.ipcc.ch/report/ar6/wg1/chapter/chapter-11/" xlink:title="Chapter 11">
<polygon fill="lightcoral" stroke="lightcoral" points="1493.62,-36 1417.62,-36 1417.62,0 1493.62,0 1493.62,-36"/>
<text text-anchor="middle" x="1455.62" y="-12.95" font-family="Times New Roman,serif" font-size="14.00">Chapter 11</text>
</a>
</g>
</g>
<!-- CP&#45;&gt;CP11 -->
<g id="edge11" class="edge">
<title>CP&#45;&gt;CP11</title>
<path fill="none" stroke="black" d="M841.99,-116.19C853.21,-113.32 865.92,-110.29 877.62,-108 1099.68,-64.5 1159.16,-77.37 1381.62,-36 1389.64,-34.51 1398.11,-32.75 1406.34,-30.93"/>
<polygon fill="black" stroke="black" points="1406.89,-34.39 1415.87,-28.77 1405.34,-27.56 1406.89,-34.39"/>
</g>
<!-- CP12 -->
<g id="node18" class="node">
<title>CP12</title>
<g id="a_node18"><a xlink:href="https://www.ipcc.ch/report/ar6/wg1/chapter/chapter-12/" xlink:title="Chapter 12">
<polygon fill="lightcoral" stroke="lightcoral" points="1641.62,-36 1565.62,-36 1565.62,0 1641.62,0 1641.62,-36"/>
<text text-anchor="middle" x="1603.62" y="-12.95" font-family="Times New Roman,serif" font-size="14.00">Chapter 12</text>
</a>
</g>
</g>
<!-- CP&#45;&gt;CP12 -->
<g id="edge12" class="edge">
<title>CP&#45;&gt;CP12</title>
<path fill="none" stroke="black" d="M841.95,-115.97C853.17,-113.09 865.89,-110.11 877.62,-108 1164.58,-56.53 1242.19,-84.72 1529.62,-36 1537.67,-34.64 1546.14,-32.94 1554.38,-31.15"/>
<polygon fill="black" stroke="black" points="1554.92,-34.61 1563.91,-29.01 1553.39,-27.78 1554.92,-34.61"/>
</g>
</g>
</svg>
