<?xml version="1.0" encoding="UTF-8" standalone="no"?>
<!DOCTYPE svg PUBLIC "-//W3C//DTD SVG 1.1//EN"
 "http://www.w3.org/Graphics/SVG/1.1/DTD/svg11.dtd">
<!-- Generated by graphviz version 12.2.1 (20241206.2353)
 -->
<!-- Title: AR6_WGI Pages: 1 -->
<svg width="2038pt" height="332pt"
 viewBox="36.00 36.00 2002.12 296.00" xmlns="http://www.w3.org/2000/svg" xmlns:xlink="http://www.w3.org/1999/xlink">
<g id="graph0" class="graph" transform="scale(1 1) rotate(0) translate(40 292)">
<title>AR6_WGI</title>
<polygon fill="white" stroke="none" points="-4,4 -4,-256 1962.12,-256 1962.12,4 -4,4"/>
<!-- AR6 -->
<g id="node1" class="node">
<title>AR6</title>
<g id="a_node1"><a xlink:href="https://www.ipcc.ch/report/ar6/wg1/" xlink:title="AR6 WGI">
<ellipse fill="lightblue" stroke="lightblue" cx="796.26" cy="-234" rx="49.3" ry="18"/>
<text text-anchor="middle" x="796.26" y="-228.95" font-family="Times New Roman,serif" font-size="14.00">AR6 WGI</text>
</a>
</g>
</g>
<!-- SPM -->
<g id="node2" class="node">
<title>SPM</title>
<g id="a_node2"><a xlink:href="https://www.ipcc.ch/report/ar6/wg1/chapter/summary-for-policymakers/" xlink:title="Summary for Policymakers">
<ellipse fill="lightgrey" stroke="lightgrey" cx="312.26" cy="-126" rx="114.3" ry="18"/>
<text text-anchor="middle" x="312.26" y="-120.95" font-family="Times New Roman,serif" font-size="14.00">Summary for Policymakers</text>
</a>
</g>
</g>
<!-- AR6&#45;&gt;SPM -->
<g id="edge13" class="edge">
<title>AR6&#45;&gt;SPM</title>
<path fill="none" stroke="black" d="M754.99,-223.96C673.71,-206.16 491.82,-166.33 388.25,-143.64"/>
<polygon fill="black" stroke="black" points="389.24,-140.28 378.72,-141.56 387.74,-147.12 389.24,-140.28"/>
</g>
<!-- TS -->
<g id="node3" class="node">
<title>TS</title>
<g id="a_node3"><a xlink:href="https://www.ipcc.ch/report/ar6/wg1/chapter/technical-summary/" xlink:title="Technical Summary">
<ellipse fill="lightgrey" stroke="lightgrey" cx="584.26" cy="-126" rx="86.15" ry="18"/>
<text text-anchor="middle" x="584.26" y="-120.95" font-family="Times New Roman,serif" font-size="14.00">Technical Summary</text>
</a>
</g>
</g>
<!-- AR6&#45;&gt;TS -->
<g id="edge14" class="edge">
<title>AR6&#45;&gt;TS</title>
<path fill="none" stroke="black" d="M768.1,-218.92C731.87,-200.81 668.58,-169.16 626.54,-148.14"/>
<polygon fill="black" stroke="black" points="628.2,-145.06 617.69,-143.72 625.07,-151.32 628.2,-145.06"/>
</g>
<!-- FR -->
<g id="node4" class="node">
<title>FR</title>
<g id="a_node4"><a xlink:href="https://www.ipcc.ch/report/ar6/wg1/" xlink:title="Full Report">
<ellipse fill="lightgrey" stroke="lightgrey" cx="796.26" cy="-126" rx="53.4" ry="18"/>
<text text-anchor="middle" x="796.26" y="-120.95" font-family="Times New Roman,serif" font-size="14.00">Full Report</text>
</a>
</g>
</g>
<!-- AR6&#45;&gt;FR -->
<g id="edge15" class="edge">
<title>AR6&#45;&gt;FR</title>
<path fill="none" stroke="black" d="M796.26,-215.97C796.26,-199.76 796.26,-175.06 796.26,-155.79"/>
<polygon fill="black" stroke="black" points="799.76,-155.85 796.26,-145.85 792.76,-155.85 799.76,-155.85"/>
</g>
<!-- CP -->
<g id="node5" class="node">
<title>CP</title>
<g id="a_node5"><a xlink:href="https://www.ipcc.ch/report/ar6/wg1/" xlink:title="Chapters">
<ellipse fill="lightyellow" stroke="lightyellow" cx="965.26" cy="-126" rx="43.67" ry="18"/>
<text text-anchor="middle" x="965.26" y="-120.95" font-family="Times New Roman,serif" font-size="14.00">Chapters</text>
</a>
</g>
</g>
<!-- AR6&#45;&gt;CP -->
<g id="edge16" class="edge">
<title>AR6&#45;&gt;CP</title>
<path fill="none" stroke="black" d="M820.11,-218.04C849.47,-199.63 899.46,-168.27 932.42,-147.59"/>
<polygon fill="black" stroke="black" points="934.17,-150.63 940.78,-142.35 930.45,-144.7 934.17,-150.63"/>
</g>
<!-- FMI -->
<g id="node6" class="node">
<title>FMI</title>
<g id="a_node6"><a xlink:href="https://www.ipcc.ch/report/ar6/wg1/" xlink:title="Front Matter, Annexes, and Index">
<ellipse fill="lightgrey" stroke="lightgrey" cx="1217.26" cy="-126" rx="136.82" ry="18"/>
<text text-anchor="middle" x="1217.26" y="-120.95" font-family="Times New Roman,serif" font-size="14.00">Front Matter, Annexes, and Index</text>
</a>
</g>
</g>
<!-- AR6&#45;&gt;FMI -->
<g id="edge17" class="edge">
<title>AR6&#45;&gt;FMI</title>
<path fill="none" stroke="black" d="M835.86,-223.03C906.53,-205.24 1055.3,-167.78 1144.72,-145.26"/>
<polygon fill="black" stroke="black" points="1145.55,-148.66 1154.39,-142.83 1143.84,-141.88 1145.55,-148.66"/>
</g>
<!-- CP1 -->
<g id="node7" class="node">
<title>CP1</title>
<g id="a_node7"><a xlink:href="https://www.ipcc.ch/report/ar6/wg1/chapter/chapter-1/" xlink:title="Chapter 1">
<ellipse fill="lightcoral" stroke="lightcoral" cx="47.26" cy="-18" rx="47.26" ry="18"/>
<text text-anchor="middle" x="47.26" y="-12.95" font-family="Times New Roman,serif" font-size="14.00">Chapter 1</text>
</a>
</g>
</g>
<!-- CP&#45;&gt;CP1 -->
<g id="edge1" class="edge">
<title>CP&#45;&gt;CP1</title>
<path fill="none" stroke="black" d="M927.98,-116.16C914.57,-113.22 899.29,-110.15 885.26,-108 552.52,-56.93 464.24,-85.45 131.26,-36 120.55,-34.41 109.15,-32.35 98.31,-30.22"/>
<polygon fill="black" stroke="black" points="99.25,-26.84 88.75,-28.29 97.86,-33.7 99.25,-26.84"/>
</g>
<!-- CP2 -->
<g id="node8" class="node">
<title>CP2</title>
<g id="a_node8"><a xlink:href="https://www.ipcc.ch/report/ar6/wg1/chapter/chapter-2/" xlink:title="Chapter 2">
<ellipse fill="lightcoral" stroke="lightcoral" cx="214.26" cy="-18" rx="47.26" ry="18"/>
<text text-anchor="middle" x="214.26" y="-12.95" font-family="Times New Roman,serif" font-size="14.00">Chapter 2</text>
</a>
</g>
</g>
<!-- CP&#45;&gt;CP2 -->
<g id="edge2" class="edge">
<title>CP&#45;&gt;CP2</title>
<path fill="none" stroke="black" d="M927.94,-116.36C914.53,-113.45 899.26,-110.34 885.26,-108 626.01,-64.64 557.71,-78.1 298.26,-36 287.57,-34.27 276.18,-32.15 265.34,-30"/>
<polygon fill="black" stroke="black" points="266.28,-26.62 255.79,-28.06 264.9,-33.48 266.28,-26.62"/>
</g>
<!-- CP3 -->
<g id="node9" class="node">
<title>CP3</title>
<g id="a_node9"><a xlink:href="https://www.ipcc.ch/report/ar6/wg1/chapter/chapter-3/" xlink:title="Chapter 3">
<ellipse fill="lightcoral" stroke="lightcoral" cx="381.26" cy="-18" rx="47.26" ry="18"/>
<text text-anchor="middle" x="381.26" y="-12.95" font-family="Times New Roman,serif" font-size="14.00">Chapter 3</text>
</a>
</g>
</g>
<!-- CP&#45;&gt;CP3 -->
<g id="edge3" class="edge">
<title>CP&#45;&gt;CP3</title>
<path fill="none" stroke="black" d="M927.47,-116.65C914.15,-113.79 899.06,-110.65 885.26,-108 699.26,-72.31 651.42,-70.79 465.26,-36 454.84,-34.05 443.71,-31.87 433.08,-29.74"/>
<polygon fill="black" stroke="black" points="433.78,-26.31 423.28,-27.76 432.39,-33.17 433.78,-26.31"/>
</g>
<!-- CP4 -->
<g id="node10" class="node">
<title>CP4</title>
<g id="a_node10"><a xlink:href="https://www.ipcc.ch/report/ar6/wg1/chapter/chapter-4/" xlink:title="Chapter 4">
<ellipse fill="lightcoral" stroke="lightcoral" cx="548.26" cy="-18" rx="47.26" ry="18"/>
<text text-anchor="middle" x="548.26" y="-12.95" font-family="Times New Roman,serif" font-size="14.00">Chapter 4</text>
</a>
</g>
</g>
<!-- CP&#45;&gt;CP4 -->
<g id="edge4" class="edge">
<title>CP&#45;&gt;CP4</title>
<path fill="none" stroke="black" d="M928.62,-115.69C853.66,-96.63 682.73,-53.18 597.91,-31.62"/>
<polygon fill="black" stroke="black" points="598.79,-28.23 588.24,-29.16 597.07,-35.02 598.79,-28.23"/>
</g>
<!-- CP5 -->
<g id="node11" class="node">
<title>CP5</title>
<g id="a_node11"><a xlink:href="https://www.ipcc.ch/report/ar6/wg1/chapter/chapter-5/" xlink:title="Chapter 5">
<ellipse fill="lightcoral" stroke="lightcoral" cx="715.26" cy="-18" rx="47.26" ry="18"/>
<text text-anchor="middle" x="715.26" y="-12.95" font-family="Times New Roman,serif" font-size="14.00">Chapter 5</text>
</a>
</g>
</g>
<!-- CP&#45;&gt;CP5 -->
<g id="edge5" class="edge">
<title>CP&#45;&gt;CP5</title>
<path fill="none" stroke="black" d="M935.6,-112.42C891.13,-93.57 807.04,-57.92 756.59,-36.52"/>
<polygon fill="black" stroke="black" points="758.02,-33.33 747.44,-32.65 755.28,-39.77 758.02,-33.33"/>
</g>
<!-- CP6 -->
<g id="node12" class="node">
<title>CP6</title>
<g id="a_node12"><a xlink:href="https://www.ipcc.ch/report/ar6/wg1/chapter/chapter-6/" xlink:title="Chapter 6">
<ellipse fill="lightcoral" stroke="lightcoral" cx="882.26" cy="-18" rx="47.26" ry="18"/>
<text text-anchor="middle" x="882.26" y="-12.95" font-family="Times New Roman,serif" font-size="14.00">Chapter 6</text>
</a>
</g>
</g>
<!-- CP&#45;&gt;CP6 -->
<g id="edge6" class="edge">
<title>CP&#45;&gt;CP6</title>
<path fill="none" stroke="black" d="M952.29,-108.44C938.83,-91.25 917.6,-64.14 902.05,-44.27"/>
<polygon fill="black" stroke="black" points="904.99,-42.35 896.07,-36.64 899.48,-46.67 904.99,-42.35"/>
</g>
<!-- CP7 -->
<g id="node13" class="node">
<title>CP7</title>
<g id="a_node13"><a xlink:href="https://www.ipcc.ch/report/ar6/wg1/chapter/chapter-7/" xlink:title="Chapter 7">
<ellipse fill="lightcoral" stroke="lightcoral" cx="1049.26" cy="-18" rx="47.26" ry="18"/>
<text text-anchor="middle" x="1049.26" y="-12.95" font-family="Times New Roman,serif" font-size="14.00">Chapter 7</text>
</a>
</g>
</g>
<!-- CP&#45;&gt;CP7 -->
<g id="edge7" class="edge">
<title>CP&#45;&gt;CP7</title>
<path fill="none" stroke="black" d="M978.38,-108.44C992.01,-91.25 1013.48,-64.14 1029.23,-44.27"/>
<polygon fill="black" stroke="black" points="1031.82,-46.64 1035.28,-36.63 1026.33,-42.3 1031.82,-46.64"/>
</g>
<!-- CP8 -->
<g id="node14" class="node">
<title>CP8</title>
<g id="a_node14"><a xlink:href="https://www.ipcc.ch/report/ar6/wg1/chapter/chapter-8/" xlink:title="Chapter 8">
<ellipse fill="lightcoral" stroke="lightcoral" cx="1216.26" cy="-18" rx="47.26" ry="18"/>
<text text-anchor="middle" x="1216.26" y="-12.95" font-family="Times New Roman,serif" font-size="14.00">Chapter 8</text>
</a>
</g>
</g>
<!-- CP&#45;&gt;CP8 -->
<g id="edge8" class="edge">
<title>CP&#45;&gt;CP8</title>
<path fill="none" stroke="black" d="M995.04,-112.42C1039.68,-93.57 1124.1,-57.92 1174.76,-36.52"/>
<polygon fill="black" stroke="black" points="1176.1,-39.76 1183.95,-32.65 1173.37,-33.31 1176.1,-39.76"/>
</g>
<!-- CP9 -->
<g id="node15" class="node">
<title>CP9</title>
<g id="a_node15"><a xlink:href="https://www.ipcc.ch/report/ar6/wg1/chapter/chapter-9/" xlink:title="Chapter 9">
<ellipse fill="lightcoral" stroke="lightcoral" cx="1383.26" cy="-18" rx="47.26" ry="18"/>
<text text-anchor="middle" x="1383.26" y="-12.95" font-family="Times New Roman,serif" font-size="14.00">Chapter 9</text>
</a>
</g>
</g>
<!-- CP&#45;&gt;CP9 -->
<g id="edge9" class="edge">
<title>CP&#45;&gt;CP9</title>
<path fill="none" stroke="black" d="M1001.62,-115.78C1076.61,-96.76 1248.52,-53.17 1333.64,-31.58"/>
<polygon fill="black" stroke="black" points="1334.26,-35.03 1343.1,-29.18 1332.54,-28.25 1334.26,-35.03"/>
</g>
<!-- CP10 -->
<g id="node16" class="node">
<title>CP10</title>
<g id="a_node16"><a xlink:href="https://www.ipcc.ch/report/ar6/wg1/chapter/chapter-10/" xlink:title="Chapter 10">
<ellipse fill="lightcoral" stroke="lightcoral" cx="1554.26" cy="-18" rx="51.86" ry="18"/>
<text text-anchor="middle" x="1554.26" y="-12.95" font-family="Times New Roman,serif" font-size="14.00">Chapter 10</text>
</a>
</g>
</g>
<!-- CP&#45;&gt;CP10 -->
<g id="edge10" class="edge">
<title>CP&#45;&gt;CP10</title>
<path fill="none" stroke="black" d="M1002.96,-116.54C1016.02,-113.7 1030.76,-110.6 1044.26,-108 1231.08,-71.98 1279.06,-70.05 1466.26,-36 1476.82,-34.08 1488.09,-31.96 1498.91,-29.88"/>
<polygon fill="black" stroke="black" points="1499.33,-33.37 1508.49,-28.04 1498.01,-26.49 1499.33,-33.37"/>
</g>
<!-- CP11 -->
<g id="node17" class="node">
<title>CP11</title>
<g id="a_node17"><a xlink:href="https://www.ipcc.ch/report/ar6/wg1/chapter/chapter-11/" xlink:title="Chapter 11">
<ellipse fill="lightcoral" stroke="lightcoral" cx="1730.26" cy="-18" rx="51.86" ry="18"/>
<text text-anchor="middle" x="1730.26" y="-12.95" font-family="Times New Roman,serif" font-size="14.00">Chapter 11</text>
</a>
</g>
</g>
<!-- CP&#45;&gt;CP11 -->
<g id="edge11" class="edge">
<title>CP&#45;&gt;CP11</title>
<path fill="none" stroke="black" d="M1002.49,-116.25C1015.64,-113.36 1030.56,-110.29 1044.26,-108 1308.28,-63.79 1377.78,-77.41 1642.26,-36 1652.98,-34.32 1664.4,-32.29 1675.33,-30.23"/>
<polygon fill="black" stroke="black" points="1675.85,-33.7 1685.01,-28.37 1674.53,-26.82 1675.85,-33.7"/>
</g>
<!-- CP12 -->
<g id="node18" class="node">
<title>CP12</title>
<g id="a_node18"><a xlink:href="https://www.ipcc.ch/report/ar6/wg1/chapter/chapter-12/" xlink:title="Chapter 12">
<ellipse fill="lightcoral" stroke="lightcoral" cx="1906.26" cy="-18" rx="51.86" ry="18"/>
<text text-anchor="middle" x="1906.26" y="-12.95" font-family="Times New Roman,serif" font-size="14.00">Chapter 12</text>
</a>
</g>
</g>
<!-- CP&#45;&gt;CP12 -->
<g id="edge12" class="edge">
<title>CP&#45;&gt;CP12</title>
<path fill="none" stroke="black" d="M1002.46,-116.04C1015.6,-113.13 1030.53,-110.11 1044.26,-108 1385.74,-55.57 1476.24,-84.82 1818.26,-36 1829.12,-34.45 1840.67,-32.46 1851.71,-30.4"/>
<polygon fill="black" stroke="black" points="1852.34,-33.84 1861.5,-28.52 1851.02,-26.97 1852.34,-33.84"/>
</g>
</g>
</svg>
